# Blender v3.2.0 OBJ File: 'rotor.blend'
# www.blender.org
mtllib rotor.mtl
o Cylinder
v 0.000000 -0.031250 -0.500000
v 0.000000 0.031250 -0.500000
v 0.119658 -0.031250 -0.485471
v 0.119658 0.031250 -0.485471
v 0.232362 -0.031250 -0.442728
v 0.232362 0.031250 -0.442728
v 0.331561 -0.031250 -0.374255
v 0.331561 0.031250 -0.374255
v 0.411492 -0.031250 -0.284032
v 0.411492 0.031250 -0.284032
v 0.467508 -0.031250 -0.177302
v 0.467508 0.031250 -0.177302
v 0.496354 -0.031250 -0.060268
v 0.496354 0.031250 -0.060268
v 0.496354 -0.031250 0.060268
v 0.496354 0.031250 0.060268
v 0.467508 -0.031250 0.177302
v 0.467508 0.031250 0.177302
v 0.411492 -0.031250 0.284032
v 0.411492 0.031250 0.284032
v 0.331561 -0.031250 0.374255
v 0.331561 0.031250 0.374255
v 0.232362 -0.031250 0.442728
v 0.232362 0.031250 0.442728
v 0.119658 -0.031250 0.485471
v 0.119658 0.031250 0.485471
v -0.000000 -0.031250 0.500000
v -0.000000 0.031250 0.500000
v -0.119658 -0.031250 0.485471
v -0.119658 0.031250 0.485471
v -0.232362 -0.031250 0.442728
v -0.232362 0.031250 0.442728
v -0.331561 -0.031250 0.374255
v -0.331561 0.031250 0.374255
v -0.411492 -0.031250 0.284032
v -0.411492 0.031250 0.284032
v -0.467508 -0.031250 0.177303
v -0.467508 0.031250 0.177303
v -0.496354 -0.031250 0.060268
v -0.496354 0.031250 0.060268
v -0.496354 -0.031250 -0.060268
v -0.496354 0.031250 -0.060268
v -0.467508 -0.031250 -0.177303
v -0.467508 0.031250 -0.177303
v -0.411492 -0.031250 -0.284032
v -0.411492 0.031250 -0.284032
v -0.331561 -0.031250 -0.374255
v -0.331561 0.031250 -0.374255
v -0.232362 -0.031250 -0.442728
v -0.232362 0.031250 -0.442728
v -0.119658 -0.031250 -0.485471
v -0.119658 0.031250 -0.485471
vt 1.000000 0.500000
vt 1.000000 1.000000
vt 0.961538 1.000000
vt 0.961538 0.500000
vt 0.923077 1.000000
vt 0.923077 0.500000
vt 0.884615 1.000000
vt 0.884615 0.500000
vt 0.846154 1.000000
vt 0.846154 0.500000
vt 0.807692 1.000000
vt 0.807692 0.500000
vt 0.769231 1.000000
vt 0.769231 0.500000
vt 0.730769 1.000000
vt 0.730769 0.500000
vt 0.692307 1.000000
vt 0.692307 0.500000
vt 0.653846 1.000000
vt 0.653846 0.500000
vt 0.615384 1.000000
vt 0.615384 0.500000
vt 0.576923 1.000000
vt 0.576923 0.500000
vt 0.538461 1.000000
vt 0.538461 0.500000
vt 0.500000 1.000000
vt 0.500000 0.500000
vt 0.461538 1.000000
vt 0.461538 0.500000
vt 0.423077 1.000000
vt 0.423077 0.500000
vt 0.384615 1.000000
vt 0.384615 0.500000
vt 0.346154 1.000000
vt 0.346154 0.500000
vt 0.307692 1.000000
vt 0.307692 0.500000
vt 0.269230 1.000000
vt 0.269230 0.500000
vt 0.230769 1.000000
vt 0.230769 0.500000
vt 0.192307 1.000000
vt 0.192307 0.500000
vt 0.153846 1.000000
vt 0.153846 0.500000
vt 0.115384 1.000000
vt 0.115384 0.500000
vt 0.076923 1.000000
vt 0.076923 0.500000
vt 0.307436 0.483026
vt 0.250000 0.490000
vt 0.192564 0.483026
vt 0.138466 0.462509
vt 0.090851 0.429643
vt 0.052484 0.386335
vt 0.025596 0.335105
vt 0.011750 0.278929
vt 0.011750 0.221071
vt 0.025596 0.164895
vt 0.052484 0.113664
vt 0.090851 0.070357
vt 0.138466 0.037491
vt 0.192564 0.016974
vt 0.250000 0.010000
vt 0.307436 0.016974
vt 0.361534 0.037491
vt 0.409149 0.070357
vt 0.447516 0.113664
vt 0.474404 0.164895
vt 0.488250 0.221071
vt 0.488250 0.278929
vt 0.474404 0.335105
vt 0.447516 0.386336
vt 0.409149 0.429643
vt 0.361534 0.462509
vt 0.038461 1.000000
vt 0.038461 0.500000
vt -0.000000 1.000000
vt -0.000000 0.500000
vt 0.750000 0.490000
vt 0.807436 0.483026
vt 0.861534 0.462509
vt 0.909149 0.429643
vt 0.947516 0.386336
vt 0.974404 0.335105
vt 0.988250 0.278929
vt 0.988250 0.221071
vt 0.974404 0.164895
vt 0.947516 0.113664
vt 0.909149 0.070357
vt 0.861534 0.037491
vt 0.807436 0.016974
vt 0.750000 0.010000
vt 0.692564 0.016974
vt 0.638466 0.037491
vt 0.590851 0.070357
vt 0.552484 0.113664
vt 0.525596 0.164895
vt 0.511750 0.221071
vt 0.511750 0.278929
vt 0.525596 0.335105
vt 0.552484 0.386335
vt 0.590851 0.429643
vt 0.638466 0.462509
vt 0.692564 0.483026
vn 0.1205 0.0000 -0.9927
vn 0.3546 0.0000 -0.9350
vn 0.5681 0.0000 -0.8230
vn 0.7485 0.0000 -0.6631
vn 0.8855 0.0000 -0.4647
vn 0.9709 0.0000 -0.2393
vn 1.0000 0.0000 0.0000
vn 0.9709 0.0000 0.2393
vn 0.8855 0.0000 0.4647
vn 0.7485 0.0000 0.6631
vn 0.5681 0.0000 0.8230
vn 0.3546 0.0000 0.9350
vn 0.1205 0.0000 0.9927
vn -0.1205 0.0000 0.9927
vn -0.3546 0.0000 0.9350
vn -0.5681 0.0000 0.8230
vn -0.7485 0.0000 0.6631
vn -0.8855 0.0000 0.4647
vn -0.9709 0.0000 0.2393
vn -1.0000 0.0000 0.0000
vn -0.9709 0.0000 -0.2393
vn -0.8855 0.0000 -0.4647
vn -0.7485 0.0000 -0.6631
vn -0.5681 0.0000 -0.8230
vn 0.0000 1.0000 0.0000
vn -0.3546 0.0000 -0.9350
vn -0.1205 0.0000 -0.9927
vn 0.0000 -1.0000 -0.0000
usemtl Material.001
s off
f 1/1/1 2/2/1 4/3/1 3/4/1
f 3/4/2 4/3/2 6/5/2 5/6/2
f 5/6/3 6/5/3 8/7/3 7/8/3
f 7/8/4 8/7/4 10/9/4 9/10/4
f 9/10/5 10/9/5 12/11/5 11/12/5
f 11/12/6 12/11/6 14/13/6 13/14/6
f 13/14/7 14/13/7 16/15/7 15/16/7
f 15/16/8 16/15/8 18/17/8 17/18/8
f 17/18/9 18/17/9 20/19/9 19/20/9
f 19/20/10 20/19/10 22/21/10 21/22/10
f 21/22/11 22/21/11 24/23/11 23/24/11
f 23/24/12 24/23/12 26/25/12 25/26/12
f 25/26/13 26/25/13 28/27/13 27/28/13
f 27/28/14 28/27/14 30/29/14 29/30/14
f 29/30/15 30/29/15 32/31/15 31/32/15
f 31/32/16 32/31/16 34/33/16 33/34/16
f 33/34/17 34/33/17 36/35/17 35/36/17
f 35/36/18 36/35/18 38/37/18 37/38/18
f 37/38/19 38/37/19 40/39/19 39/40/19
f 39/40/20 40/39/20 42/41/20 41/42/20
f 41/42/21 42/41/21 44/43/21 43/44/21
f 43/44/22 44/43/22 46/45/22 45/46/22
f 45/46/23 46/45/23 48/47/23 47/48/23
f 47/48/24 48/47/24 50/49/24 49/50/24
f 4/51/25 2/52/25 52/53/25 50/54/25 48/55/25 46/56/25 44/57/25 42/58/25 40/59/25 38/60/25 36/61/25 34/62/25 32/63/25 30/64/25 28/65/25 26/66/25 24/67/25 22/68/25 20/69/25 18/70/25 16/71/25 14/72/25 12/73/25 10/74/25 8/75/25 6/76/25
f 49/50/26 50/49/26 52/77/26 51/78/26
f 51/78/27 52/77/27 2/79/27 1/80/27
f 1/81/28 3/82/28 5/83/28 7/84/28 9/85/28 11/86/28 13/87/28 15/88/28 17/89/28 19/90/28 21/91/28 23/92/28 25/93/28 27/94/28 29/95/28 31/96/28 33/97/28 35/98/28 37/99/28 39/100/28 41/101/28 43/102/28 45/103/28 47/104/28 49/105/28 51/106/28
